<svg xmlns="http://www.w3.org/2000/svg" width="26" height="26" fill="none"><path fill="#fff" stroke="#101010" stroke-width=".3" d="m13.781.975 11.25 11.25a1.1 1.1 0 0 1 .319.781v.001a1.1 1.1 0 0 1-1.1 1.1h-1.4v8.9a2.35 2.35 0 0 1-2.35 2.35h-15a2.35 2.35 0 0 1-2.35-2.35v-8.9h-1.4a1.1 1.1 0 0 1-.423-.081l-.057.138.057-.138a1.1 1.1 0 0 1-.359-.238l-.105.107.105-.107a1.1 1.1 0 0 1-.24-.358l-.139.058.138-.058a1.1 1.1 0 0 1 0-.846l-.138-.057.138.057q.085-.202.241-.358L12.219.976h.001c.102-.104.224-.186.358-.241L12.52.596l.057.139a1.1 1.1 0 0 1 .846 0l.058-.139-.058.139a1.1 1.1 0 0 1 .358.24Zm11.353 12.916a1.25 1.25 0 0 0 .366-.884l-22.65 1.25H3v8.75a2.5 2.5 0 0 0 2.5 2.5h15a2.5 2.5 0 0 0 2.5-2.5v-8.75h1.25c.332 0 .65-.131.884-.366ZM5.35 23.007v.15h15.3V10.958l-.044-.044-7.5-7.5L13 3.308l-.106.106-7.5 7.5-.044.044v12.049Z"/></svg>