<svg xmlns="http://www.w3.org/2000/svg" width="30" height="30" fill="none"><mask id="a" fill="#fff"><path d="m26.43.88-4.912.976 3.425 4.425 2.463-.5zm-8.587 1.7-2.462.488 3.437 4.413 2.45-.488zm-6.125 1.2-2.462.513 3.437 4.413 2.45-.488zM5.581 5.03l-1.225.238a2.494 2.494 0 0 0-1.963 2.938l.488 2.45 6.125-1.213zm19.8 8.126v10h-20v-10zm2.5-2.5h-25v12.5a2.5 2.5 0 0 0 2.5 2.5h20c1.387 0 2.5-1.113 2.5-2.5z"/></mask><path fill="#fff" d="m26.43.88-4.912.976 3.425 4.425 2.463-.5zm-8.587 1.7-2.462.488 3.437 4.413 2.45-.488zm-6.125 1.2-2.462.513 3.437 4.413 2.45-.488zM5.581 5.03l-1.225.238a2.494 2.494 0 0 0-1.963 2.938l.488 2.45 6.125-1.213zm19.8 8.126v10h-20v-10zm2.5-2.5h-25v12.5a2.5 2.5 0 0 0 2.5 2.5h20c1.387 0 2.5-1.113 2.5-2.5z"/><path fill="#101010" d="m21.518 1.856-.097-.49-.793.157.495.639zm3.425 4.425-.395.306.19.245.305-.061zm2.463-.5.1.49.487-.1-.097-.488zM15.38 3.068l-.098-.49-.795.157.498.64zm3.437 4.413-.394.307.19.243.302-.06zm2.45-.488.098.49.793-.157-.496-.64zm-9.55-3.212.396-.306-.191-.248-.307.064zm-2.462.512-.102-.49-.786.164.493.633zm3.437 4.413-.394.307.19.243.302-.06zm2.45-.488.098.49.79-.157-.492-.638zM5.581 5.031l.395-.307-.189-.243-.302.059zm-1.225.237-.096-.49H4.26zM2.393 8.206l.49-.098zm.488 2.45-.49.097.097.49.49-.097zm6.125-1.213.097.49.794-.157-.496-.64zm16.375 3.713h.5v-.5h-.5zm0 10v.5h.5v-.5zm-20 0h-.5v.5h.5zm0-10v-.5h-.5v.5zm22.5-2.5h.5v-.5h-.5zm-25 0v-.5h-.5v.5zm0 12.5h-.5zM26.333.39l-4.912.975.195.981 4.912-.975zm-5.21 1.772 3.425 4.425.79-.612-3.425-4.425zm3.92 4.609 2.462-.5-.199-.98-2.462.5zm2.853-1.088-.975-4.9-.98.195.974 4.9zM17.746 2.09l-2.462.488.194.98 2.462-.487zm-2.76 1.285 3.438 4.413.789-.615-3.438-4.412zm3.93 4.596 2.45-.487-.195-.981-2.45.487zm2.747-1.284-3.425-4.413-.79.613L20.873 7.3zM11.616 3.29l-2.462.513.204.979 2.462-.513zm-2.755 1.31L12.3 9.012l.789-.615L9.65 3.986zm3.93 4.595 2.45-.487-.195-.981-2.45.487zm2.748-1.283-3.425-4.438-.792.611 3.425 4.438zM5.485 4.54l-1.225.237.19.982 1.226-.237zm-1.226.238a3 3 0 0 0-1.082.446l.555.832c.218-.145.463-.247.72-.297zm-1.082.446c-.328.219-.61.5-.828.828l.831.555c.146-.218.333-.405.552-.55zm-.828.828c-.22.327-.371.695-.448 1.081l.981.195c.051-.258.153-.503.298-.72zM1.9 7.133c-.076.387-.076.785.002 1.171l.98-.197a2 2 0 0 1 0-.78zm.002 1.17.487 2.45.981-.195-.487-2.45zm1.075 2.843 6.125-1.212-.194-.981-6.125 1.212zM9.4 9.136 5.976 4.725l-.79.613L8.61 9.75zm15.48 4.02v10h1v-10zm.5 9.5h-20v1h20zm-19.5.5v-10h-1v10zm-.5-9.5h20v-1h-20zm22.5-3.5h-25v1h25zm-25.5.5v12.5h1v-12.5zm0 12.5a3 3 0 0 0 .878 2.121l.707-.707a2 2 0 0 1-.585-1.414zm.878 2.121a3 3 0 0 0 2.122.879v-1a2 2 0 0 1-1.415-.586zm2.122.879h20v-1h-20zm20 0c1.663 0 3-1.337 3-3h-1c0 1.111-.889 2-2 2zm3-3v-12.5h-1v12.5z" mask="url(#a)"/></svg>