<svg xmlns="http://www.w3.org/2000/svg" width="23" height="18" fill="none"><path fill="#fff" d="M0 13.867q0 .361.249.586.25.225.65.225h2.226q1.211 0 2.026-.4.816-.402 1.704-1.426l5.918-6.905a5 5 0 0 1 .816-.781q.396-.293.83-.425a3.3 3.3 0 0 1 .972-.132h1.992v2.207q0 .294.16.455.162.16.465.16.136 0 .268-.048a.8.8 0 0 0 .24-.137l3.691-3.057a.58.58 0 0 0 .234-.459q0-.263-.234-.468L18.516.195a.8.8 0 0 0-.24-.132.9.9 0 0 0-.268-.043q-.303 0-.464.156t-.161.449v2.354h-2.041q-1.22 0-2.041.4-.82.4-1.7 1.426l-5.908 6.904q-.635.742-1.206 1.045-.57.303-1.313.303H.898q-.4 0-.649.224a.75.75 0 0 0-.249.586M0 3.8q0 .36.249.586.25.225.65.224h2.275q.751 0 1.318.303t1.201 1.045l5.909 6.904q.878 1.026 1.699 1.421.82.396 2.04.396h2.042V17.1q0 .293.16.449.162.156.465.156.136 0 .268-.044a.8.8 0 0 0 .24-.132l3.691-3.056q.234-.196.234-.46 0-.262-.234-.468l-3.691-3.066a.83.83 0 0 0-.508-.186q-.303 0-.464.161t-.161.454v2.149H15.39q-.801 0-1.392-.303t-1.226-1.045L6.855 4.805q-.888-1.026-1.704-1.421-.815-.396-2.026-.396H.898q-.4 0-.649.22a.75.75 0 0 0-.249.59"/></svg>