<svg xmlns="http://www.w3.org/2000/svg" width="25" height="21" fill="none"><g clip-path="url(#a)"><path fill="#FFFBFB" d="M2.51 16.875h19.394q1.24 0 1.875-.635.636-.634.635-1.875V3.174q0-1.23-.635-1.865T21.904.674H2.51q-1.24 0-1.875.635T0 3.174v11.191q0 1.24.635 1.875t1.875.635m.03-1.572q-.479 0-.724-.24-.243-.239-.244-.717V3.203q0-.478.244-.718.245-.24.723-.239h19.336q.489 0 .727.24.24.238.24.717v11.143q0 .479-.24.717-.238.24-.727.24zm4.755 4.883h9.824q.322 0 .557-.23a.76.76 0 0 0 .234-.561.76.76 0 0 0-.234-.557.76.76 0 0 0-.557-.235H7.295a.76.76 0 0 0-.557.235.76.76 0 0 0-.234.556q0 .334.234.562.235.23.557.23"/></g><defs><clipPath id="a"><path fill="#fff" d="M0 0h24.414v20.186H0z"/></clipPath></defs></svg>